<svg version="1.1" id="Layer_1" xmlns="http://www.w3.org/2000/svg" xmlns:xlink="http://www.w3.org/1999/xlink" x="0px" y="0px"
	 width="100%" viewBox="0 0 500 500" enable-background="new 0 0 500 500" xml:space="preserve">
<path fill="#000000" opacity="1.000000" stroke="none" 
	d="
M464.000000,501.000000 
	C309.333374,501.000000 155.166733,501.000000 1.000083,501.000000 
	C1.000055,334.333405 1.000055,167.666824 1.000028,1.000172 
	C167.666550,1.000115 334.333099,1.000115 500.999756,1.000057 
	C500.999817,167.666519 500.999817,334.333038 500.999908,500.999756 
	C488.833344,501.000000 476.666656,501.000000 464.000000,501.000000 
M340.752167,232.268112 
	C337.845947,231.204575 334.939758,230.141052 332.075409,229.092834 
	C329.272461,235.599869 326.926117,241.046906 324.224915,247.317657 
	C322.594727,241.883286 321.477753,237.509598 319.958282,233.280502 
	C318.488678,229.190216 314.711823,230.140915 311.521332,229.976013 
	C308.540314,229.821960 308.039673,231.611786 307.938721,234.116837 
	C307.773560,238.216110 307.098755,242.299393 307.020477,246.396713 
	C306.866730,254.443268 306.975220,262.494843 306.975220,270.680756 
	C309.982361,270.680756 313.374603,270.680756 316.680939,270.680756 
	C317.011353,267.497803 317.306030,264.659302 317.536194,262.442139 
	C319.730164,264.409637 321.853973,267.735626 323.632690,267.560303 
	C326.015961,267.325378 328.132050,264.380096 330.261322,262.679626 
	C330.261322,265.121704 330.261322,267.882446 330.261322,270.834442 
	C333.965942,270.834442 337.423248,270.834442 341.762756,270.705872 
	C341.849396,258.795105 341.951385,246.884399 341.982483,234.973495 
	C341.984253,234.296646 341.405304,233.618271 340.752167,232.268112 
M228.070816,252.494720 
	C226.638367,246.477936 225.326080,240.429230 223.739029,234.453506 
	C222.215408,228.716721 217.597336,229.705872 213.200790,229.585114 
	C209.770706,229.490891 209.806122,232.056107 209.046814,233.805908 
	C205.933838,240.979553 202.818054,248.173325 200.222473,255.542542 
	C198.540756,260.317230 197.757797,265.408478 196.420349,270.991364 
	C199.578766,270.991364 201.566330,271.151184 203.514633,270.943298 
	C205.226288,270.760651 208.214432,270.443512 208.368805,269.708801 
	C209.444763,264.587708 213.062057,263.585297 217.656769,263.292633 
	C218.280960,265.688385 218.928192,268.172455 219.568985,270.631897 
	C223.350082,270.631897 227.069199,270.631897 231.132782,270.631897 
	C230.061279,264.604523 229.062286,258.984955 228.070816,252.494720 
M294.041840,244.995544 
	C290.437378,244.995544 286.832916,244.995544 283.228455,244.995544 
	C282.990906,244.512161 282.753357,244.028763 282.515778,243.545380 
	C283.459167,242.692108 284.285065,241.338852 285.369110,241.084152 
	C288.064178,240.450836 290.870544,240.248199 293.643555,239.998291 
	C300.985840,239.336609 302.512939,236.920090 300.200378,230.219650 
	C292.847168,229.820801 285.680511,229.230057 278.510254,229.182800 
	C276.679443,229.170731 273.650452,230.515228 273.234039,231.870193 
	C272.193665,235.255234 272.244690,238.998489 272.025696,242.608200 
	C271.625275,249.208450 271.306732,255.814438 271.035278,262.421356 
	C270.921997,265.178345 271.016449,267.943878 271.016449,271.376129 
	C280.756470,270.887421 289.757172,270.435791 298.750427,269.984528 
	C298.750427,266.334473 298.750427,263.403046 298.750427,259.826324 
	C293.137756,260.142334 287.797211,260.443024 282.454834,260.743835 
	C281.368011,256.832214 282.245972,254.716339 286.554413,254.957397 
	C288.286346,255.054306 290.067291,254.910629 291.779449,254.610962 
	C297.834839,253.551132 298.844910,250.411438 294.041840,244.995544 
M128.969406,242.743622 
	C125.731918,251.802231 121.564125,260.611023 120.998871,270.990082 
	C123.955742,270.990082 126.435326,271.158539 128.876007,270.923340 
	C130.221024,270.793793 132.561127,270.118622 132.643173,269.462982 
	C133.342575,263.874054 137.432236,263.738434 141.596252,263.412170 
	C142.217728,265.908203 142.834579,268.385651 143.421539,270.743042 
	C147.325714,270.743042 150.934204,270.743042 154.680222,270.743042 
	C154.799362,269.889130 155.063950,269.226044 154.948425,268.637604 
	C152.907471,258.242859 150.902161,247.839096 148.618759,237.496994 
	C148.385178,236.439087 146.522858,235.245987 145.248001,235.004578 
	C141.255707,234.248596 138.806992,232.292404 138.468124,226.373718 
	C134.791458,232.430481 131.884369,237.219452 128.969406,242.743622 
M169.121902,231.541489 
	C163.510925,238.219177 159.525452,245.614288 160.051498,254.620010 
	C160.667633,265.168213 165.624222,272.169189 176.187332,271.075317 
	C182.337326,270.438477 185.527496,266.202545 188.729309,261.747162 
	C191.203186,258.304657 188.384995,256.737823 186.425507,254.903015 
	C183.523834,252.185944 183.014740,255.675629 181.684067,256.862396 
	C180.255890,258.136078 179.055206,259.677368 177.570618,260.872498 
	C174.880569,263.038025 173.274521,262.071198 173.113663,258.827393 
	C172.932678,255.177704 172.615067,251.452393 173.133423,247.872406 
	C173.709061,243.896744 174.969574,239.918808 179.744843,237.904510 
	C179.744843,239.718719 180.142563,241.295609 179.659225,242.526550 
	C178.748917,244.844925 178.803589,246.937286 181.533386,246.800079 
	C184.670181,246.642426 189.668030,249.206116 190.584885,244.736359 
	C191.391815,240.802475 189.890244,236.108932 188.378708,232.143234 
	C187.860825,230.784470 184.231140,230.046021 182.013077,230.023666 
	C177.913605,229.982330 173.806702,230.678680 169.121902,231.541489 
M237.001938,253.581543 
	C236.719940,259.264343 236.437927,264.947174 236.158112,270.586121 
	C257.262726,272.839813 267.534180,262.876648 265.771637,243.293411 
	C263.280029,244.373871 260.478546,245.311066 257.991821,246.780823 
	C256.693115,247.548386 255.423065,249.117493 255.051468,250.559464 
	C253.935547,254.889526 251.734802,258.072693 247.263763,260.091492 
	C247.619049,253.271423 247.950790,246.903503 248.296036,240.276352 
	C250.021301,239.898331 251.812881,239.505783 253.550018,239.125153 
	C254.706650,236.317062 255.926422,233.355698 257.500916,229.533127 
	C250.495239,229.888519 244.296967,230.202972 238.484833,230.497818 
	C237.930222,238.779785 237.466705,245.701218 237.001938,253.581543 
M354.105042,252.264053 
	C355.168274,258.339966 356.231476,264.415894 357.336761,270.732178 
	C360.003906,270.732178 363.403900,270.732178 366.831604,270.732178 
	C365.331726,256.630524 373.728394,245.802414 377.801727,233.610580 
	C372.693909,228.259003 369.067017,228.732681 366.251953,235.213318 
	C365.042236,237.998245 363.832703,240.783218 362.196198,244.550949 
	C360.938232,241.117310 360.187958,238.833908 359.274384,236.617798 
	C355.802338,228.195389 355.782227,228.202499 347.404236,231.373245 
	C347.277252,231.421310 347.206238,231.617371 346.840179,232.096024 
	C349.172302,238.399139 351.588257,244.928726 354.105042,252.264053 
M263.062531,233.942307 
	C263.596252,233.458130 264.129974,232.973953 264.663696,232.489792 
	C264.618439,233.056839 264.573212,233.623886 264.527954,234.190933 
	C263.031433,233.617218 261.534912,233.043518 259.988373,232.450653 
	C255.281021,238.070419 254.976273,240.004227 259.253052,244.108612 
	C260.665924,240.683411 261.917908,237.648209 263.062531,233.942307 
M230.917587,199.177399 
	C230.967850,198.623459 231.018112,198.069504 231.068375,197.515549 
	C230.652695,197.656311 230.237015,197.797073 229.821350,197.937851 
	C230.037598,198.415543 230.253830,198.893234 230.917587,199.177399 
z"/>
<path fill="#05C066" opacity="1.000000" stroke="none" 
	d="
M340.880554,270.834442 
	C337.423248,270.834442 333.965942,270.834442 330.261322,270.834442 
	C330.261322,267.882446 330.261322,265.121704 330.261322,262.679626 
	C328.132050,264.380096 326.015961,267.325378 323.632690,267.560303 
	C321.853973,267.735626 319.730164,264.409637 317.536194,262.442139 
	C317.306030,264.659302 317.011353,267.497803 316.680939,270.680756 
	C313.374603,270.680756 309.982361,270.680756 306.975220,270.680756 
	C306.975220,262.494843 306.866730,254.443268 307.020477,246.396713 
	C307.098755,242.299393 307.773560,238.216110 307.938721,234.116837 
	C308.039673,231.611786 308.540314,229.821960 311.521332,229.976013 
	C314.711823,230.140915 318.488678,229.190216 319.958282,233.280502 
	C321.477753,237.509598 322.594727,241.883286 324.224915,247.317657 
	C326.926117,241.046906 329.272461,235.599869 332.075409,229.092834 
	C334.939758,230.141052 337.845947,231.204575 340.865936,233.073425 
	C340.946655,246.197296 340.913605,258.515869 340.880554,270.834442 
z"/>
<path fill="#06C167" opacity="1.000000" stroke="none" 
	d="
M228.067047,252.930054 
	C229.062286,258.984955 230.061279,264.604523 231.132782,270.631897 
	C227.069199,270.631897 223.350082,270.631897 219.568985,270.631897 
	C218.928192,268.172455 218.280960,265.688385 217.656769,263.292633 
	C213.062057,263.585297 209.444763,264.587708 208.368805,269.708801 
	C208.214432,270.443512 205.226288,270.760651 203.514633,270.943298 
	C201.566330,271.151184 199.578766,270.991364 196.420349,270.991364 
	C197.757797,265.408478 198.540756,260.317230 200.222473,255.542542 
	C202.818054,248.173325 205.933838,240.979553 209.046814,233.805908 
	C209.806122,232.056107 209.770706,229.490891 213.200790,229.585114 
	C217.597336,229.705872 222.215408,228.716721 223.739029,234.453506 
	C225.326080,240.429230 226.638367,246.477936 228.067047,252.930054 
z"/>
<path fill="#04C065" opacity="1.000000" stroke="none" 
	d="
M294.486450,245.030243 
	C298.844910,250.411438 297.834839,253.551132 291.779449,254.610962 
	C290.067291,254.910629 288.286346,255.054306 286.554413,254.957397 
	C282.245972,254.716339 281.368011,256.832214 282.454834,260.743835 
	C287.797211,260.443024 293.137756,260.142334 298.750427,259.826324 
	C298.750427,263.403046 298.750427,266.334473 298.750427,269.984528 
	C289.757172,270.435791 280.756470,270.887421 271.016449,271.376129 
	C271.016449,267.943878 270.921997,265.178345 271.035278,262.421356 
	C271.306732,255.814438 271.625275,249.208450 272.025696,242.608200 
	C272.244690,238.998489 272.193665,235.255234 273.234039,231.870193 
	C273.650452,230.515228 276.679443,229.170731 278.510254,229.182800 
	C285.680511,229.230057 292.847168,229.820801 300.200378,230.219650 
	C302.512939,236.920090 300.985840,239.336609 293.643555,239.998291 
	C290.870544,240.248199 288.064178,240.450836 285.369110,241.084152 
	C284.285065,241.338852 283.459167,242.692108 282.515778,243.545380 
	C282.753357,244.028763 282.990906,244.512161 283.228455,244.995544 
	C286.832916,244.995544 290.437378,244.995544 294.486450,245.030243 
z"/>
<path fill="#07C067" opacity="1.000000" stroke="none" 
	d="
M128.973343,242.376038 
	C131.884369,237.219452 134.791458,232.430481 138.468124,226.373718 
	C138.806992,232.292404 141.255707,234.248596 145.248001,235.004578 
	C146.522858,235.245987 148.385178,236.439087 148.618759,237.496994 
	C150.902161,247.839096 152.907471,258.242859 154.948425,268.637604 
	C155.063950,269.226044 154.799362,269.889130 154.680222,270.743042 
	C150.934204,270.743042 147.325714,270.743042 143.421539,270.743042 
	C142.834579,268.385651 142.217728,265.908203 141.596252,263.412170 
	C137.432236,263.738434 133.342575,263.874054 132.643173,269.462982 
	C132.561127,270.118622 130.221024,270.793793 128.876007,270.923340 
	C126.435326,271.158539 123.955742,270.990082 120.998871,270.990082 
	C121.564125,260.611023 125.731918,251.802231 128.973343,242.376038 
z"/>
<path fill="#06C067" opacity="1.000000" stroke="none" 
	d="
M169.412399,231.304611 
	C173.806702,230.678680 177.913605,229.982330 182.013077,230.023666 
	C184.231140,230.046021 187.860825,230.784470 188.378708,232.143234 
	C189.890244,236.108932 191.391815,240.802475 190.584885,244.736359 
	C189.668030,249.206116 184.670181,246.642426 181.533386,246.800079 
	C178.803589,246.937286 178.748917,244.844925 179.659225,242.526550 
	C180.142563,241.295609 179.744843,239.718719 179.744843,237.904510 
	C174.969574,239.918808 173.709061,243.896744 173.133423,247.872406 
	C172.615067,251.452393 172.932678,255.177704 173.113663,258.827393 
	C173.274521,262.071198 174.880569,263.038025 177.570618,260.872498 
	C179.055206,259.677368 180.255890,258.136078 181.684067,256.862396 
	C183.014740,255.675629 183.523834,252.185944 186.425507,254.903015 
	C188.384995,256.737823 191.203186,258.304657 188.729309,261.747162 
	C185.527496,266.202545 182.337326,270.438477 176.187332,271.075317 
	C165.624222,272.169189 160.667633,265.168213 160.051498,254.620010 
	C159.525452,245.614288 163.510925,238.219177 169.412399,231.304611 
z"/>
<path fill="#04BF65" opacity="1.000000" stroke="none" 
	d="
M237.002563,253.102097 
	C237.466705,245.701218 237.930222,238.779785 238.484833,230.497818 
	C244.296967,230.202972 250.495239,229.888519 257.500916,229.533127 
	C255.926422,233.355698 254.706650,236.317062 253.550018,239.125153 
	C251.812881,239.505783 250.021301,239.898331 248.296036,240.276352 
	C247.950790,246.903503 247.619049,253.271423 247.263763,260.091492 
	C251.734802,258.072693 253.935547,254.889526 255.051468,250.559464 
	C255.423065,249.117493 256.693115,247.548386 257.991821,246.780823 
	C260.478546,245.311066 263.280029,244.373871 265.771637,243.293411 
	C267.534180,262.876648 257.262726,272.839813 236.158112,270.586121 
	C236.437927,264.947174 236.719940,259.264343 237.002563,253.102097 
z"/>
<path fill="#07C168" opacity="1.000000" stroke="none" 
	d="
M354.054626,251.861191 
	C351.588257,244.928726 349.172302,238.399139 346.840179,232.096024 
	C347.206238,231.617371 347.277252,231.421310 347.404236,231.373245 
	C355.782227,228.202499 355.802338,228.195389 359.274384,236.617798 
	C360.187958,238.833908 360.938232,241.117310 362.196198,244.550949 
	C363.832703,240.783218 365.042236,237.998245 366.251953,235.213318 
	C369.067017,228.732681 372.693909,228.259003 377.801727,233.610580 
	C373.728394,245.802414 365.331726,256.630524 366.831604,270.732178 
	C363.403900,270.732178 360.003906,270.732178 357.336761,270.732178 
	C356.231476,264.415894 355.168274,258.339966 354.054626,251.861191 
z"/>
<path fill="#02B15C" opacity="1.000000" stroke="none" 
	d="
M263.116211,234.277649 
	C261.917908,237.648209 260.665924,240.683411 259.253052,244.108612 
	C254.976273,240.004227 255.281021,238.070419 259.988373,232.450653 
	C261.534912,233.043518 263.031433,233.617218 264.527954,234.190933 
	C264.573212,233.623886 264.618439,233.056839 264.663696,232.489792 
	C264.129974,232.973953 263.596252,233.458130 263.116211,234.277649 
z"/>
<path fill="#81DFB2" opacity="1.000000" stroke="none" 
	d="
M341.321655,270.770142 
	C340.913605,258.515869 340.946655,246.197296 341.038177,233.409668 
	C341.405304,233.618271 341.984253,234.296646 341.982483,234.973495 
	C341.951385,246.884399 341.849396,258.795105 341.321655,270.770142 
z"/>
<path fill="#131313" opacity="1.000000" stroke="none" 
	d="
M230.693832,199.274170 
	C230.253830,198.893234 230.037598,198.415543 229.821350,197.937836 
	C230.237015,197.797073 230.652695,197.656311 231.068375,197.515564 
	C231.018112,198.069504 230.967850,198.623459 230.693832,199.274170 
z"/>
</svg>